# xmcd
#
# Track frame offsets: 
#        150
#        24370
#        48262
#        70767
#        98492
#        123627
#        145767
#        165147
#        185837
#        208832
#        228800
#        250192
#        270330
#
# Disc length: 3868 seconds
#
# Revision: 8
# Processed by: cddbd v1.5.1PL0 Copyright (c) Steve Scherf et al.
# Submitted via: ExactAudioCopy v0.90b4
#
DISCID=a50f1a0d
DTITLE=Various Artist - A Twist Of Marley
DYEAR=2001
DGENRE=Jazz
TTITLE0=Exodus By Lisa Fischer And M.Brecker
TTITLE1=I Shot The Sherrif By Maxi Priest And Lee Ritenour
TTITLE2=Get Up Stand Up By Lee Ritenour And Dave Grusin
TTITLE3=No Woman No Cry By Jonathan Butler 
TTITLE4=Is This Love By Downing, Will 
TTITLE5=Redemption Song By Richard Bona And M.Brecker
TTITLE6=Jamming By Gerald Albright And Lee Ritenour
TTITLE7=Waiting In Vain By Lee Ritenour And Maxi Priest
TTITLE8=Turn Your Lights Down Low By Lisa Fischer
TTITLE9=So Much Trouble By Rick Braun And Phil Perry
TTITLE10=Could You Be Loved By Marc Antoine And Patti Austin
TTITLE11=Stir It Up By Phil Perry
TTITLE12=Get Up Stand Up By Jochem And Digz
EXTD=YEAR: 2001
EXTT0=
EXTT1=
EXTT2=
EXTT3=
EXTT4=
EXTT5=
EXTT6=
EXTT7=
EXTT8=
EXTT9=
EXTT10=
EXTT11=
EXTT12=
PLAYORDER=
